# xmcd
#
# Track frame offsets: 
#        150
#        20994
#        41954
#        55807
#        71870
#        80315
#        93557
#        119095
#        144573
#        167433
#        192346
#
# Disc length: 2690 seconds
#
# Revision: 0
# Processed by: cddbd v1.5.2PL0 Copyright (c) Steve Scherf et al.
# Submitted via: ExactAudioCopy v1.0b3
#
DISCID=a40a800b
DTITLE=Steve Hunter - Tone Poems - Live
DYEAR=2014
DGENRE=Blues-Rock
TTITLE0=The Idler
TTITLE1=222 W. 23rd
TTITLE2=Deep Blue
TTITLE3=Flying Hippo
TTITLE4=Glidepath
TTITLE5=Rubber Man
TTITLE6=Riviera Paradise
TTITLE7=Solsbury Hill
TTITLE8=Swept Away
TTITLE9=Freeway Rider
TTITLE10=Of All Times to Leave
EXTD=
EXTT0=
EXTT1=
EXTT2=
EXTT3=
EXTT4=
EXTT5=
EXTT6=
EXTT7=
EXTT8=
EXTT9=
EXTT10=
PLAYORDER=
